<?xml version="1.0" encoding="utf-8" standalone="no"?>
<!DOCTYPE svg PUBLIC "-//W3C//DTD SVG 1.1//EN"
  "http://www.w3.org/Graphics/SVG/1.1/DTD/svg11.dtd">
<!-- Created with matplotlib (http://matplotlib.org/) -->
<svg height="432pt" version="1.1" viewBox="0 0 576 432" width="576pt" xmlns="http://www.w3.org/2000/svg" xmlns:xlink="http://www.w3.org/1999/xlink">
 <defs>
  <style type="text/css">
*{stroke-linecap:butt;stroke-linejoin:round;}
  </style>
 </defs>
 <g id="figure_1">
  <g id="patch_1">
   <path d="
M0 432
L576 432
L576 0
L0 0
z
" style="fill:#ffffff;"/>
  </g>
  <g id="axes_1">
   <g id="patch_2">
    <path d="
M72 388.8
L518.4 388.8
L518.4 43.2
L72 43.2
z
" style="fill:#ffffff;"/>
   </g>
   <g id="patch_3">
    <path clip-path="url(#p7ff5b81e1d)" d="
M83.16 388.8
L172.44 388.8
L172.44 77.184
L83.16 77.184
z
" style="fill:#ffffff;stroke:#000000;stroke-linejoin:miter;"/>
   </g>
   <g id="patch_4">
    <path clip-path="url(#p7ff5b81e1d)" d="
M194.76 388.8
L284.04 388.8
L284.04 235.584
L194.76 235.584
z
" style="fill:url(#hcad88ede71);stroke:#000000;stroke-linejoin:miter;"/>
   </g>
   <g id="patch_5">
    <path clip-path="url(#p7ff5b81e1d)" d="
M306.36 388.8
L395.64 388.8
L395.64 313.92
L306.36 313.92
z
" style="fill:url(#h3c1d748473);stroke:#000000;stroke-linejoin:miter;"/>
   </g>
   <g id="patch_6">
    <path clip-path="url(#p7ff5b81e1d)" d="
M417.96 388.8
L507.24 388.8
L507.24 327.744
L417.96 327.744
z
" style="fill:url(#had7df6d085);stroke:#000000;stroke-linejoin:miter;"/>
   </g>
   <g id="patch_7">
    <path d="
M72 43.2
L518.4 43.2" style="fill:none;stroke:#000000;stroke-linecap:square;stroke-linejoin:miter;"/>
   </g>
   <g id="patch_8">
    <path d="
M518.4 388.8
L518.4 43.2" style="fill:none;stroke:#000000;stroke-linecap:square;stroke-linejoin:miter;"/>
   </g>
   <g id="patch_9">
    <path d="
M72 388.8
L518.4 388.8" style="fill:none;stroke:#000000;stroke-linecap:square;stroke-linejoin:miter;"/>
   </g>
   <g id="patch_10">
    <path d="
M72 388.8
L72 43.2" style="fill:none;stroke:#000000;stroke-linecap:square;stroke-linejoin:miter;"/>
   </g>
   <g id="matplotlib.axis_1">
    <g id="xtick_1">
     <g id="line2d_1">
      <defs>
       <path d="
M0 0
L0 -4" id="m93b0483c22" style="stroke:#000000;stroke-width:0.5;"/>
      </defs>
      <g>
       <use style="stroke:#000000;stroke-width:0.5;" x="127.8" xlink:href="#m93b0483c22" y="388.8"/>
      </g>
     </g>
     <g id="line2d_2">
      <defs>
       <path d="
M0 0
L0 4" id="m741efc42ff" style="stroke:#000000;stroke-width:0.5;"/>
      </defs>
      <g>
       <use style="stroke:#000000;stroke-width:0.5;" x="127.8" xlink:href="#m741efc42ff" y="43.2"/>
      </g>
     </g>
     <g id="text_1">
      <!-- 3 types -->
      <defs>
       <path d="
M40.5781 39.3125
Q47.6562 37.7969 51.625 33
Q55.6094 28.2188 55.6094 21.1875
Q55.6094 10.4062 48.1875 4.48438
Q40.7656 -1.42188 27.0938 -1.42188
Q22.5156 -1.42188 17.6562 -0.515625
Q12.7969 0.390625 7.625 2.20312
L7.625 11.7188
Q11.7188 9.32812 16.5938 8.10938
Q21.4844 6.89062 26.8125 6.89062
Q36.0781 6.89062 40.9375 10.5469
Q45.7969 14.2031 45.7969 21.1875
Q45.7969 27.6406 41.2812 31.2656
Q36.7656 34.9062 28.7188 34.9062
L20.2188 34.9062
L20.2188 43.0156
L29.1094 43.0156
Q36.375 43.0156 40.2344 45.9219
Q44.0938 48.8281 44.0938 54.2969
Q44.0938 59.9062 40.1094 62.9062
Q36.1406 65.9219 28.7188 65.9219
Q24.6562 65.9219 20.0156 65.0312
Q15.375 64.1562 9.8125 62.3125
L9.8125 71.0938
Q15.4375 72.6562 20.3438 73.4375
Q25.25 74.2188 29.5938 74.2188
Q40.8281 74.2188 47.3594 69.1094
Q53.9062 64.0156 53.9062 55.3281
Q53.9062 49.2656 50.4375 45.0938
Q46.9688 40.9219 40.5781 39.3125" id="BitstreamVeraSans-Roman-33"/>
       <path id="BitstreamVeraSans-Roman-20"/>
       <path d="
M32.1719 -5.07812
Q28.375 -14.8438 24.75 -17.8125
Q21.1406 -20.7969 15.0938 -20.7969
L7.90625 -20.7969
L7.90625 -13.2812
L13.1875 -13.2812
Q16.8906 -13.2812 18.9375 -11.5156
Q21 -9.76562 23.4844 -3.21875
L25.0938 0.875
L2.98438 54.6875
L12.5 54.6875
L29.5938 11.9219
L46.6875 54.6875
L56.2031 54.6875
z
" id="BitstreamVeraSans-Roman-79"/>
       <path d="
M56.2031 29.5938
L56.2031 25.2031
L14.8906 25.2031
Q15.4844 15.9219 20.4844 11.0625
Q25.4844 6.20312 34.4219 6.20312
Q39.5938 6.20312 44.4531 7.46875
Q49.3125 8.73438 54.1094 11.2812
L54.1094 2.78125
Q49.2656 0.734375 44.1875 -0.34375
Q39.1094 -1.42188 33.8906 -1.42188
Q20.7969 -1.42188 13.1562 6.1875
Q5.51562 13.8125 5.51562 26.8125
Q5.51562 40.2344 12.7656 48.1094
Q20.0156 56 32.3281 56
Q43.3594 56 49.7812 48.8906
Q56.2031 41.7969 56.2031 29.5938
M47.2188 32.2344
Q47.125 39.5938 43.0938 43.9844
Q39.0625 48.3906 32.4219 48.3906
Q24.9062 48.3906 20.3906 44.1406
Q15.875 39.8906 15.1875 32.1719
z
" id="BitstreamVeraSans-Roman-65"/>
       <path d="
M18.3125 70.2188
L18.3125 54.6875
L36.8125 54.6875
L36.8125 47.7031
L18.3125 47.7031
L18.3125 18.0156
Q18.3125 11.3281 20.1406 9.42188
Q21.9688 7.51562 27.5938 7.51562
L36.8125 7.51562
L36.8125 0
L27.5938 0
Q17.1875 0 13.2344 3.875
Q9.28125 7.76562 9.28125 18.0156
L9.28125 47.7031
L2.6875 47.7031
L2.6875 54.6875
L9.28125 54.6875
L9.28125 70.2188
z
" id="BitstreamVeraSans-Roman-74"/>
       <path d="
M44.2812 53.0781
L44.2812 44.5781
Q40.4844 46.5312 36.375 47.5
Q32.2812 48.4844 27.875 48.4844
Q21.1875 48.4844 17.8438 46.4375
Q14.5 44.3906 14.5 40.2812
Q14.5 37.1562 16.8906 35.375
Q19.2812 33.5938 26.5156 31.9844
L29.5938 31.2969
Q39.1562 29.25 43.1875 25.5156
Q47.2188 21.7812 47.2188 15.0938
Q47.2188 7.46875 41.1875 3.01562
Q35.1562 -1.42188 24.6094 -1.42188
Q20.2188 -1.42188 15.4531 -0.5625
Q10.6875 0.296875 5.42188 2
L5.42188 11.2812
Q10.4062 8.6875 15.2344 7.39062
Q20.0625 6.10938 24.8125 6.10938
Q31.1562 6.10938 34.5625 8.28125
Q37.9844 10.4531 37.9844 14.4062
Q37.9844 18.0625 35.5156 20.0156
Q33.0625 21.9688 24.7031 23.7812
L21.5781 24.5156
Q13.2344 26.2656 9.51562 29.9062
Q5.8125 33.5469 5.8125 39.8906
Q5.8125 47.6094 11.2812 51.7969
Q16.75 56 26.8125 56
Q31.7812 56 36.1719 55.2656
Q40.5781 54.5469 44.2812 53.0781" id="BitstreamVeraSans-Roman-73"/>
       <path d="
M18.1094 8.20312
L18.1094 -20.7969
L9.07812 -20.7969
L9.07812 54.6875
L18.1094 54.6875
L18.1094 46.3906
Q20.9531 51.2656 25.2656 53.625
Q29.5938 56 35.5938 56
Q45.5625 56 51.7812 48.0938
Q58.0156 40.1875 58.0156 27.2969
Q58.0156 14.4062 51.7812 6.48438
Q45.5625 -1.42188 35.5938 -1.42188
Q29.5938 -1.42188 25.2656 0.953125
Q20.9531 3.32812 18.1094 8.20312
M48.6875 27.2969
Q48.6875 37.2031 44.6094 42.8438
Q40.5312 48.4844 33.4062 48.4844
Q26.2656 48.4844 22.1875 42.8438
Q18.1094 37.2031 18.1094 27.2969
Q18.1094 17.3906 22.1875 11.75
Q26.2656 6.10938 33.4062 6.10938
Q40.5312 6.10938 44.6094 11.75
Q48.6875 17.3906 48.6875 27.2969" id="BitstreamVeraSans-Roman-70"/>
      </defs>
      <g transform="translate(105.838125 401.918125)scale(0.12 -0.12)">
       <use xlink:href="#BitstreamVeraSans-Roman-33"/>
       <use x="63.623046875" xlink:href="#BitstreamVeraSans-Roman-20"/>
       <use x="95.41015625" xlink:href="#BitstreamVeraSans-Roman-74"/>
       <use x="134.619140625" xlink:href="#BitstreamVeraSans-Roman-79"/>
       <use x="193.798828125" xlink:href="#BitstreamVeraSans-Roman-70"/>
       <use x="257.275390625" xlink:href="#BitstreamVeraSans-Roman-65"/>
       <use x="318.798828125" xlink:href="#BitstreamVeraSans-Roman-73"/>
      </g>
     </g>
    </g>
    <g id="xtick_2">
     <g id="line2d_3">
      <g>
       <use style="stroke:#000000;stroke-width:0.5;" x="239.4" xlink:href="#m93b0483c22" y="388.8"/>
      </g>
     </g>
     <g id="line2d_4">
      <g>
       <use style="stroke:#000000;stroke-width:0.5;" x="239.4" xlink:href="#m741efc42ff" y="43.2"/>
      </g>
     </g>
     <g id="text_2">
      <!-- 2 types -->
      <defs>
       <path d="
M19.1875 8.29688
L53.6094 8.29688
L53.6094 0
L7.32812 0
L7.32812 8.29688
Q12.9375 14.1094 22.625 23.8906
Q32.3281 33.6875 34.8125 36.5312
Q39.5469 41.8438 41.4219 45.5312
Q43.3125 49.2188 43.3125 52.7812
Q43.3125 58.5938 39.2344 62.25
Q35.1562 65.9219 28.6094 65.9219
Q23.9688 65.9219 18.8125 64.3125
Q13.6719 62.7031 7.8125 59.4219
L7.8125 69.3906
Q13.7656 71.7812 18.9375 73
Q24.125 74.2188 28.4219 74.2188
Q39.75 74.2188 46.4844 68.5469
Q53.2188 62.8906 53.2188 53.4219
Q53.2188 48.9219 51.5312 44.8906
Q49.8594 40.875 45.4062 35.4062
Q44.1875 33.9844 37.6406 27.2188
Q31.1094 20.4531 19.1875 8.29688" id="BitstreamVeraSans-Roman-32"/>
      </defs>
      <g transform="translate(217.438125 401.918125)scale(0.12 -0.12)">
       <use xlink:href="#BitstreamVeraSans-Roman-32"/>
       <use x="63.623046875" xlink:href="#BitstreamVeraSans-Roman-20"/>
       <use x="95.41015625" xlink:href="#BitstreamVeraSans-Roman-74"/>
       <use x="134.619140625" xlink:href="#BitstreamVeraSans-Roman-79"/>
       <use x="193.798828125" xlink:href="#BitstreamVeraSans-Roman-70"/>
       <use x="257.275390625" xlink:href="#BitstreamVeraSans-Roman-65"/>
       <use x="318.798828125" xlink:href="#BitstreamVeraSans-Roman-73"/>
      </g>
      <!-- 2 mutations -->
      <defs>
       <path d="
M54.8906 33.0156
L54.8906 0
L45.9062 0
L45.9062 32.7188
Q45.9062 40.4844 42.875 44.3281
Q39.8438 48.1875 33.7969 48.1875
Q26.5156 48.1875 22.3125 43.5469
Q18.1094 38.9219 18.1094 30.9062
L18.1094 0
L9.07812 0
L9.07812 54.6875
L18.1094 54.6875
L18.1094 46.1875
Q21.3438 51.125 25.7031 53.5625
Q30.0781 56 35.7969 56
Q45.2188 56 50.0469 50.1719
Q54.8906 44.3438 54.8906 33.0156" id="BitstreamVeraSans-Roman-6e"/>
       <path d="
M52 44.1875
Q55.375 50.25 60.0625 53.125
Q64.75 56 71.0938 56
Q79.6406 56 84.2812 50.0156
Q88.9219 44.0469 88.9219 33.0156
L88.9219 0
L79.8906 0
L79.8906 32.7188
Q79.8906 40.5781 77.0938 44.375
Q74.3125 48.1875 68.6094 48.1875
Q61.625 48.1875 57.5625 43.5469
Q53.5156 38.9219 53.5156 30.9062
L53.5156 0
L44.4844 0
L44.4844 32.7188
Q44.4844 40.625 41.7031 44.4062
Q38.9219 48.1875 33.1094 48.1875
Q26.2188 48.1875 22.1562 43.5312
Q18.1094 38.875 18.1094 30.9062
L18.1094 0
L9.07812 0
L9.07812 54.6875
L18.1094 54.6875
L18.1094 46.1875
Q21.1875 51.2188 25.4844 53.6094
Q29.7812 56 35.6875 56
Q41.6562 56 45.8281 52.9688
Q50 49.9531 52 44.1875" id="BitstreamVeraSans-Roman-6d"/>
       <path d="
M30.6094 48.3906
Q23.3906 48.3906 19.1875 42.75
Q14.9844 37.1094 14.9844 27.2969
Q14.9844 17.4844 19.1562 11.8438
Q23.3438 6.20312 30.6094 6.20312
Q37.7969 6.20312 41.9844 11.8594
Q46.1875 17.5312 46.1875 27.2969
Q46.1875 37.0156 41.9844 42.7031
Q37.7969 48.3906 30.6094 48.3906
M30.6094 56
Q42.3281 56 49.0156 48.375
Q55.7188 40.7656 55.7188 27.2969
Q55.7188 13.875 49.0156 6.21875
Q42.3281 -1.42188 30.6094 -1.42188
Q18.8438 -1.42188 12.1719 6.21875
Q5.51562 13.875 5.51562 27.2969
Q5.51562 40.7656 12.1719 48.375
Q18.8438 56 30.6094 56" id="BitstreamVeraSans-Roman-6f"/>
       <path d="
M9.42188 54.6875
L18.4062 54.6875
L18.4062 0
L9.42188 0
z

M9.42188 75.9844
L18.4062 75.9844
L18.4062 64.5938
L9.42188 64.5938
z
" id="BitstreamVeraSans-Roman-69"/>
       <path d="
M8.5 21.5781
L8.5 54.6875
L17.4844 54.6875
L17.4844 21.9219
Q17.4844 14.1562 20.5 10.2656
Q23.5312 6.39062 29.5938 6.39062
Q36.8594 6.39062 41.0781 11.0312
Q45.3125 15.6719 45.3125 23.6875
L45.3125 54.6875
L54.2969 54.6875
L54.2969 0
L45.3125 0
L45.3125 8.40625
Q42.0469 3.42188 37.7188 1
Q33.4062 -1.42188 27.6875 -1.42188
Q18.2656 -1.42188 13.375 4.4375
Q8.5 10.2969 8.5 21.5781" id="BitstreamVeraSans-Roman-75"/>
       <path d="
M34.2812 27.4844
Q23.3906 27.4844 19.1875 25
Q14.9844 22.5156 14.9844 16.5
Q14.9844 11.7188 18.1406 8.90625
Q21.2969 6.10938 26.7031 6.10938
Q34.1875 6.10938 38.7031 11.4062
Q43.2188 16.7031 43.2188 25.4844
L43.2188 27.4844
z

M52.2031 31.2031
L52.2031 0
L43.2188 0
L43.2188 8.29688
Q40.1406 3.32812 35.5469 0.953125
Q30.9531 -1.42188 24.3125 -1.42188
Q15.9219 -1.42188 10.9531 3.29688
Q6 8.01562 6 15.9219
Q6 25.1406 12.1719 29.8281
Q18.3594 34.5156 30.6094 34.5156
L43.2188 34.5156
L43.2188 35.4062
Q43.2188 41.6094 39.1406 45
Q35.0625 48.3906 27.6875 48.3906
Q23 48.3906 18.5469 47.2656
Q14.1094 46.1406 10.0156 43.8906
L10.0156 52.2031
Q14.9375 54.1094 19.5781 55.0469
Q24.2188 56 28.6094 56
Q40.4844 56 46.3438 49.8438
Q52.2031 43.7031 52.2031 31.2031" id="BitstreamVeraSans-Roman-61"/>
      </defs>
      <g transform="translate(203.67375 415.3555)scale(0.12 -0.12)">
       <use xlink:href="#BitstreamVeraSans-Roman-32"/>
       <use x="63.623046875" xlink:href="#BitstreamVeraSans-Roman-20"/>
       <use x="95.41015625" xlink:href="#BitstreamVeraSans-Roman-6d"/>
       <use x="192.822265625" xlink:href="#BitstreamVeraSans-Roman-75"/>
       <use x="256.201171875" xlink:href="#BitstreamVeraSans-Roman-74"/>
       <use x="295.41015625" xlink:href="#BitstreamVeraSans-Roman-61"/>
       <use x="356.689453125" xlink:href="#BitstreamVeraSans-Roman-74"/>
       <use x="395.8984375" xlink:href="#BitstreamVeraSans-Roman-69"/>
       <use x="423.681640625" xlink:href="#BitstreamVeraSans-Roman-6f"/>
       <use x="484.86328125" xlink:href="#BitstreamVeraSans-Roman-6e"/>
       <use x="548.2421875" xlink:href="#BitstreamVeraSans-Roman-73"/>
      </g>
      <!-- 3 gammete test passes -->
      <defs>
       <path d="
M45.4062 27.9844
Q45.4062 37.75 41.375 43.1094
Q37.3594 48.4844 30.0781 48.4844
Q22.8594 48.4844 18.8281 43.1094
Q14.7969 37.75 14.7969 27.9844
Q14.7969 18.2656 18.8281 12.8906
Q22.8594 7.51562 30.0781 7.51562
Q37.3594 7.51562 41.375 12.8906
Q45.4062 18.2656 45.4062 27.9844
M54.3906 6.78125
Q54.3906 -7.17188 48.1875 -13.9844
Q42 -20.7969 29.2031 -20.7969
Q24.4688 -20.7969 20.2656 -20.0938
Q16.0625 -19.3906 12.1094 -17.9219
L12.1094 -9.1875
Q16.0625 -11.3281 19.9219 -12.3438
Q23.7812 -13.375 27.7812 -13.375
Q36.625 -13.375 41.0156 -8.76562
Q45.4062 -4.15625 45.4062 5.17188
L45.4062 9.625
Q42.625 4.78125 38.2812 2.39062
Q33.9375 0 27.875 0
Q17.8281 0 11.6719 7.65625
Q5.51562 15.3281 5.51562 27.9844
Q5.51562 40.6719 11.6719 48.3281
Q17.8281 56 27.875 56
Q33.9375 56 38.2812 53.6094
Q42.625 51.2188 45.4062 46.3906
L45.4062 54.6875
L54.3906 54.6875
z
" id="BitstreamVeraSans-Roman-67"/>
      </defs>
      <g transform="translate(169.1671875 428.792875)scale(0.12 -0.12)">
       <use xlink:href="#BitstreamVeraSans-Roman-33"/>
       <use x="63.623046875" xlink:href="#BitstreamVeraSans-Roman-20"/>
       <use x="95.41015625" xlink:href="#BitstreamVeraSans-Roman-67"/>
       <use x="158.88671875" xlink:href="#BitstreamVeraSans-Roman-61"/>
       <use x="220.166015625" xlink:href="#BitstreamVeraSans-Roman-6d"/>
       <use x="317.578125" xlink:href="#BitstreamVeraSans-Roman-6d"/>
       <use x="414.990234375" xlink:href="#BitstreamVeraSans-Roman-65"/>
       <use x="476.513671875" xlink:href="#BitstreamVeraSans-Roman-74"/>
       <use x="515.72265625" xlink:href="#BitstreamVeraSans-Roman-65"/>
       <use x="577.24609375" xlink:href="#BitstreamVeraSans-Roman-20"/>
       <use x="609.033203125" xlink:href="#BitstreamVeraSans-Roman-74"/>
       <use x="648.2421875" xlink:href="#BitstreamVeraSans-Roman-65"/>
       <use x="709.765625" xlink:href="#BitstreamVeraSans-Roman-73"/>
       <use x="761.865234375" xlink:href="#BitstreamVeraSans-Roman-74"/>
       <use x="801.07421875" xlink:href="#BitstreamVeraSans-Roman-20"/>
       <use x="832.861328125" xlink:href="#BitstreamVeraSans-Roman-70"/>
       <use x="896.337890625" xlink:href="#BitstreamVeraSans-Roman-61"/>
       <use x="957.6171875" xlink:href="#BitstreamVeraSans-Roman-73"/>
       <use x="1009.71679688" xlink:href="#BitstreamVeraSans-Roman-73"/>
       <use x="1061.81640625" xlink:href="#BitstreamVeraSans-Roman-65"/>
       <use x="1123.33984375" xlink:href="#BitstreamVeraSans-Roman-73"/>
      </g>
     </g>
    </g>
    <g id="xtick_3">
     <g id="line2d_5">
      <g>
       <use style="stroke:#000000;stroke-width:0.5;" x="351.0" xlink:href="#m93b0483c22" y="388.8"/>
      </g>
     </g>
     <g id="line2d_6">
      <g>
       <use style="stroke:#000000;stroke-width:0.5;" x="351.0" xlink:href="#m741efc42ff" y="43.2"/>
      </g>
     </g>
     <g id="text_3">
      <!-- 2 types -->
      <g transform="translate(329.038125 401.918125)scale(0.12 -0.12)">
       <use xlink:href="#BitstreamVeraSans-Roman-32"/>
       <use x="63.623046875" xlink:href="#BitstreamVeraSans-Roman-20"/>
       <use x="95.41015625" xlink:href="#BitstreamVeraSans-Roman-74"/>
       <use x="134.619140625" xlink:href="#BitstreamVeraSans-Roman-79"/>
       <use x="193.798828125" xlink:href="#BitstreamVeraSans-Roman-70"/>
       <use x="257.275390625" xlink:href="#BitstreamVeraSans-Roman-65"/>
       <use x="318.798828125" xlink:href="#BitstreamVeraSans-Roman-73"/>
      </g>
      <!-- 3 gammete test fails -->
      <defs>
       <path d="
M37.1094 75.9844
L37.1094 68.5
L28.5156 68.5
Q23.6875 68.5 21.7969 66.5469
Q19.9219 64.5938 19.9219 59.5156
L19.9219 54.6875
L34.7188 54.6875
L34.7188 47.7031
L19.9219 47.7031
L19.9219 0
L10.8906 0
L10.8906 47.7031
L2.29688 47.7031
L2.29688 54.6875
L10.8906 54.6875
L10.8906 58.5
Q10.8906 67.625 15.1406 71.7969
Q19.3906 75.9844 28.6094 75.9844
z
" id="BitstreamVeraSans-Roman-66"/>
       <path d="
M9.42188 75.9844
L18.4062 75.9844
L18.4062 0
L9.42188 0
z
" id="BitstreamVeraSans-Roman-6c"/>
      </defs>
      <g transform="translate(289.0734375 415.3555)scale(0.12 -0.12)">
       <use xlink:href="#BitstreamVeraSans-Roman-33"/>
       <use x="63.623046875" xlink:href="#BitstreamVeraSans-Roman-20"/>
       <use x="95.41015625" xlink:href="#BitstreamVeraSans-Roman-67"/>
       <use x="158.88671875" xlink:href="#BitstreamVeraSans-Roman-61"/>
       <use x="220.166015625" xlink:href="#BitstreamVeraSans-Roman-6d"/>
       <use x="317.578125" xlink:href="#BitstreamVeraSans-Roman-6d"/>
       <use x="414.990234375" xlink:href="#BitstreamVeraSans-Roman-65"/>
       <use x="476.513671875" xlink:href="#BitstreamVeraSans-Roman-74"/>
       <use x="515.72265625" xlink:href="#BitstreamVeraSans-Roman-65"/>
       <use x="577.24609375" xlink:href="#BitstreamVeraSans-Roman-20"/>
       <use x="609.033203125" xlink:href="#BitstreamVeraSans-Roman-74"/>
       <use x="648.2421875" xlink:href="#BitstreamVeraSans-Roman-65"/>
       <use x="709.765625" xlink:href="#BitstreamVeraSans-Roman-73"/>
       <use x="761.865234375" xlink:href="#BitstreamVeraSans-Roman-74"/>
       <use x="801.07421875" xlink:href="#BitstreamVeraSans-Roman-20"/>
       <use x="832.861328125" xlink:href="#BitstreamVeraSans-Roman-66"/>
       <use x="868.06640625" xlink:href="#BitstreamVeraSans-Roman-61"/>
       <use x="929.345703125" xlink:href="#BitstreamVeraSans-Roman-69"/>
       <use x="957.12890625" xlink:href="#BitstreamVeraSans-Roman-6c"/>
       <use x="984.912109375" xlink:href="#BitstreamVeraSans-Roman-73"/>
      </g>
     </g>
    </g>
    <g id="xtick_4">
     <g id="line2d_7">
      <g>
       <use style="stroke:#000000;stroke-width:0.5;" x="462.6" xlink:href="#m93b0483c22" y="388.8"/>
      </g>
     </g>
     <g id="line2d_8">
      <g>
       <use style="stroke:#000000;stroke-width:0.5;" x="462.6" xlink:href="#m741efc42ff" y="43.2"/>
      </g>
     </g>
     <g id="text_4">
      <!-- 1 type -->
      <defs>
       <path d="
M12.4062 8.29688
L28.5156 8.29688
L28.5156 63.9219
L10.9844 60.4062
L10.9844 69.3906
L28.4219 72.9062
L38.2812 72.9062
L38.2812 8.29688
L54.3906 8.29688
L54.3906 0
L12.4062 0
z
" id="BitstreamVeraSans-Roman-31"/>
      </defs>
      <g transform="translate(443.7909375 401.918125)scale(0.12 -0.12)">
       <use xlink:href="#BitstreamVeraSans-Roman-31"/>
       <use x="63.623046875" xlink:href="#BitstreamVeraSans-Roman-20"/>
       <use x="95.41015625" xlink:href="#BitstreamVeraSans-Roman-74"/>
       <use x="134.619140625" xlink:href="#BitstreamVeraSans-Roman-79"/>
       <use x="193.798828125" xlink:href="#BitstreamVeraSans-Roman-70"/>
       <use x="257.275390625" xlink:href="#BitstreamVeraSans-Roman-65"/>
      </g>
      <!-- 2 mutations -->
      <g transform="translate(426.87375 415.3555)scale(0.12 -0.12)">
       <use xlink:href="#BitstreamVeraSans-Roman-32"/>
       <use x="63.623046875" xlink:href="#BitstreamVeraSans-Roman-20"/>
       <use x="95.41015625" xlink:href="#BitstreamVeraSans-Roman-6d"/>
       <use x="192.822265625" xlink:href="#BitstreamVeraSans-Roman-75"/>
       <use x="256.201171875" xlink:href="#BitstreamVeraSans-Roman-74"/>
       <use x="295.41015625" xlink:href="#BitstreamVeraSans-Roman-61"/>
       <use x="356.689453125" xlink:href="#BitstreamVeraSans-Roman-74"/>
       <use x="395.8984375" xlink:href="#BitstreamVeraSans-Roman-69"/>
       <use x="423.681640625" xlink:href="#BitstreamVeraSans-Roman-6f"/>
       <use x="484.86328125" xlink:href="#BitstreamVeraSans-Roman-6e"/>
       <use x="548.2421875" xlink:href="#BitstreamVeraSans-Roman-73"/>
      </g>
     </g>
    </g>
   </g>
   <g id="matplotlib.axis_2">
    <g id="ytick_1">
     <g id="line2d_9">
      <defs>
       <path d="
M0 0
L4 0" id="m728421d6d4" style="stroke:#000000;stroke-width:0.5;"/>
      </defs>
      <g>
       <use style="stroke:#000000;stroke-width:0.5;" x="72.0" xlink:href="#m728421d6d4" y="388.8"/>
      </g>
     </g>
     <g id="line2d_10">
      <defs>
       <path d="
M0 0
L-4 0" id="mcb0005524f" style="stroke:#000000;stroke-width:0.5;"/>
      </defs>
      <g>
       <use style="stroke:#000000;stroke-width:0.5;" x="518.4" xlink:href="#mcb0005524f" y="388.8"/>
      </g>
     </g>
     <g id="text_5">
      <!-- 0 -->
      <defs>
       <path d="
M31.7812 66.4062
Q24.1719 66.4062 20.3281 58.9062
Q16.5 51.4219 16.5 36.375
Q16.5 21.3906 20.3281 13.8906
Q24.1719 6.39062 31.7812 6.39062
Q39.4531 6.39062 43.2812 13.8906
Q47.125 21.3906 47.125 36.375
Q47.125 51.4219 43.2812 58.9062
Q39.4531 66.4062 31.7812 66.4062
M31.7812 74.2188
Q44.0469 74.2188 50.5156 64.5156
Q56.9844 54.8281 56.9844 36.375
Q56.9844 17.9688 50.5156 8.26562
Q44.0469 -1.42188 31.7812 -1.42188
Q19.5312 -1.42188 13.0625 8.26562
Q6.59375 17.9688 6.59375 36.375
Q6.59375 54.8281 13.0625 64.5156
Q19.5312 74.2188 31.7812 74.2188" id="BitstreamVeraSans-Roman-30"/>
      </defs>
      <g transform="translate(61.953125 392.11125)scale(0.12 -0.12)">
       <use xlink:href="#BitstreamVeraSans-Roman-30"/>
      </g>
     </g>
    </g>
    <g id="ytick_2">
     <g id="line2d_11">
      <g>
       <use style="stroke:#000000;stroke-width:0.5;" x="72.0" xlink:href="#m728421d6d4" y="331.2"/>
      </g>
     </g>
     <g id="line2d_12">
      <g>
       <use style="stroke:#000000;stroke-width:0.5;" x="518.4" xlink:href="#mcb0005524f" y="331.2"/>
      </g>
     </g>
     <g id="text_6">
      <!-- 100 -->
      <g transform="translate(47.21 334.51125)scale(0.12 -0.12)">
       <use xlink:href="#BitstreamVeraSans-Roman-31"/>
       <use x="63.623046875" xlink:href="#BitstreamVeraSans-Roman-30"/>
       <use x="127.24609375" xlink:href="#BitstreamVeraSans-Roman-30"/>
      </g>
     </g>
    </g>
    <g id="ytick_3">
     <g id="line2d_13">
      <g>
       <use style="stroke:#000000;stroke-width:0.5;" x="72.0" xlink:href="#m728421d6d4" y="273.6"/>
      </g>
     </g>
     <g id="line2d_14">
      <g>
       <use style="stroke:#000000;stroke-width:0.5;" x="518.4" xlink:href="#mcb0005524f" y="273.6"/>
      </g>
     </g>
     <g id="text_7">
      <!-- 200 -->
      <g transform="translate(46.77125 276.91125)scale(0.12 -0.12)">
       <use xlink:href="#BitstreamVeraSans-Roman-32"/>
       <use x="63.623046875" xlink:href="#BitstreamVeraSans-Roman-30"/>
       <use x="127.24609375" xlink:href="#BitstreamVeraSans-Roman-30"/>
      </g>
     </g>
    </g>
    <g id="ytick_4">
     <g id="line2d_15">
      <g>
       <use style="stroke:#000000;stroke-width:0.5;" x="72.0" xlink:href="#m728421d6d4" y="216.0"/>
      </g>
     </g>
     <g id="line2d_16">
      <g>
       <use style="stroke:#000000;stroke-width:0.5;" x="518.4" xlink:href="#mcb0005524f" y="216.0"/>
      </g>
     </g>
     <g id="text_8">
      <!-- 300 -->
      <g transform="translate(46.806875 219.31125)scale(0.12 -0.12)">
       <use xlink:href="#BitstreamVeraSans-Roman-33"/>
       <use x="63.623046875" xlink:href="#BitstreamVeraSans-Roman-30"/>
       <use x="127.24609375" xlink:href="#BitstreamVeraSans-Roman-30"/>
      </g>
     </g>
    </g>
    <g id="ytick_5">
     <g id="line2d_17">
      <g>
       <use style="stroke:#000000;stroke-width:0.5;" x="72.0" xlink:href="#m728421d6d4" y="158.4"/>
      </g>
     </g>
     <g id="line2d_18">
      <g>
       <use style="stroke:#000000;stroke-width:0.5;" x="518.4" xlink:href="#mcb0005524f" y="158.4"/>
      </g>
     </g>
     <g id="text_9">
      <!-- 400 -->
      <defs>
       <path d="
M37.7969 64.3125
L12.8906 25.3906
L37.7969 25.3906
z

M35.2031 72.9062
L47.6094 72.9062
L47.6094 25.3906
L58.0156 25.3906
L58.0156 17.1875
L47.6094 17.1875
L47.6094 0
L37.7969 0
L37.7969 17.1875
L4.89062 17.1875
L4.89062 26.7031
z
" id="BitstreamVeraSans-Roman-34"/>
      </defs>
      <g transform="translate(46.47875 161.71125)scale(0.12 -0.12)">
       <use xlink:href="#BitstreamVeraSans-Roman-34"/>
       <use x="63.623046875" xlink:href="#BitstreamVeraSans-Roman-30"/>
       <use x="127.24609375" xlink:href="#BitstreamVeraSans-Roman-30"/>
      </g>
     </g>
    </g>
    <g id="ytick_6">
     <g id="line2d_19">
      <g>
       <use style="stroke:#000000;stroke-width:0.5;" x="72.0" xlink:href="#m728421d6d4" y="100.8"/>
      </g>
     </g>
     <g id="line2d_20">
      <g>
       <use style="stroke:#000000;stroke-width:0.5;" x="518.4" xlink:href="#mcb0005524f" y="100.8"/>
      </g>
     </g>
     <g id="text_10">
      <!-- 500 -->
      <defs>
       <path d="
M10.7969 72.9062
L49.5156 72.9062
L49.5156 64.5938
L19.8281 64.5938
L19.8281 46.7344
Q21.9688 47.4688 24.1094 47.8281
Q26.2656 48.1875 28.4219 48.1875
Q40.625 48.1875 47.75 41.5
Q54.8906 34.8125 54.8906 23.3906
Q54.8906 11.625 47.5625 5.09375
Q40.2344 -1.42188 26.9062 -1.42188
Q22.3125 -1.42188 17.5469 -0.640625
Q12.7969 0.140625 7.71875 1.70312
L7.71875 11.625
Q12.1094 9.23438 16.7969 8.0625
Q21.4844 6.89062 26.7031 6.89062
Q35.1562 6.89062 40.0781 11.3281
Q45.0156 15.7656 45.0156 23.3906
Q45.0156 31 40.0781 35.4375
Q35.1562 39.8906 26.7031 39.8906
Q22.75 39.8906 18.8125 39.0156
Q14.8906 38.1406 10.7969 36.2812
z
" id="BitstreamVeraSans-Roman-35"/>
      </defs>
      <g transform="translate(46.818125 104.11125)scale(0.12 -0.12)">
       <use xlink:href="#BitstreamVeraSans-Roman-35"/>
       <use x="63.623046875" xlink:href="#BitstreamVeraSans-Roman-30"/>
       <use x="127.24609375" xlink:href="#BitstreamVeraSans-Roman-30"/>
      </g>
     </g>
    </g>
    <g id="ytick_7">
     <g id="line2d_21">
      <g>
       <use style="stroke:#000000;stroke-width:0.5;" x="72.0" xlink:href="#m728421d6d4" y="43.2"/>
      </g>
     </g>
     <g id="line2d_22">
      <g>
       <use style="stroke:#000000;stroke-width:0.5;" x="518.4" xlink:href="#mcb0005524f" y="43.2"/>
      </g>
     </g>
     <g id="text_11">
      <!-- 600 -->
      <defs>
       <path d="
M33.0156 40.375
Q26.375 40.375 22.4844 35.8281
Q18.6094 31.2969 18.6094 23.3906
Q18.6094 15.5312 22.4844 10.9531
Q26.375 6.39062 33.0156 6.39062
Q39.6562 6.39062 43.5312 10.9531
Q47.4062 15.5312 47.4062 23.3906
Q47.4062 31.2969 43.5312 35.8281
Q39.6562 40.375 33.0156 40.375
M52.5938 71.2969
L52.5938 62.3125
Q48.875 64.0625 45.0938 64.9844
Q41.3125 65.9219 37.5938 65.9219
Q27.8281 65.9219 22.6719 59.3281
Q17.5312 52.7344 16.7969 39.4062
Q19.6719 43.6562 24.0156 45.9219
Q28.375 48.1875 33.5938 48.1875
Q44.5781 48.1875 50.9531 41.5156
Q57.3281 34.8594 57.3281 23.3906
Q57.3281 12.1562 50.6875 5.35938
Q44.0469 -1.42188 33.0156 -1.42188
Q20.3594 -1.42188 13.6719 8.26562
Q6.98438 17.9688 6.98438 36.375
Q6.98438 53.6562 15.1875 63.9375
Q23.3906 74.2188 37.2031 74.2188
Q40.9219 74.2188 44.7031 73.4844
Q48.4844 72.75 52.5938 71.2969" id="BitstreamVeraSans-Roman-36"/>
      </defs>
      <g transform="translate(46.73 46.51125)scale(0.12 -0.12)">
       <use xlink:href="#BitstreamVeraSans-Roman-36"/>
       <use x="63.623046875" xlink:href="#BitstreamVeraSans-Roman-30"/>
       <use x="127.24609375" xlink:href="#BitstreamVeraSans-Roman-30"/>
      </g>
     </g>
    </g>
    <g id="text_12">
     <!-- frequency -->
     <defs>
      <path d="
M41.1094 46.2969
Q39.5938 47.1719 37.8125 47.5781
Q36.0312 48 33.8906 48
Q26.2656 48 22.1875 43.0469
Q18.1094 38.0938 18.1094 28.8125
L18.1094 0
L9.07812 0
L9.07812 54.6875
L18.1094 54.6875
L18.1094 46.1875
Q20.9531 51.1719 25.4844 53.5781
Q30.0312 56 36.5312 56
Q37.4531 56 38.5781 55.875
Q39.7031 55.7656 41.0625 55.5156
z
" id="BitstreamVeraSans-Roman-72"/>
      <path d="
M48.7812 52.5938
L48.7812 44.1875
Q44.9688 46.2969 41.1406 47.3438
Q37.3125 48.3906 33.4062 48.3906
Q24.6562 48.3906 19.8125 42.8438
Q14.9844 37.3125 14.9844 27.2969
Q14.9844 17.2812 19.8125 11.7344
Q24.6562 6.20312 33.4062 6.20312
Q37.3125 6.20312 41.1406 7.25
Q44.9688 8.29688 48.7812 10.4062
L48.7812 2.09375
Q45.0156 0.34375 40.9844 -0.53125
Q36.9688 -1.42188 32.4219 -1.42188
Q20.0625 -1.42188 12.7812 6.34375
Q5.51562 14.1094 5.51562 27.2969
Q5.51562 40.6719 12.8594 48.3281
Q20.2188 56 33.0156 56
Q37.1562 56 41.1094 55.1406
Q45.0625 54.2969 48.7812 52.5938" id="BitstreamVeraSans-Roman-63"/>
      <path d="
M14.7969 27.2969
Q14.7969 17.3906 18.875 11.75
Q22.9531 6.10938 30.0781 6.10938
Q37.2031 6.10938 41.2969 11.75
Q45.4062 17.3906 45.4062 27.2969
Q45.4062 37.2031 41.2969 42.8438
Q37.2031 48.4844 30.0781 48.4844
Q22.9531 48.4844 18.875 42.8438
Q14.7969 37.2031 14.7969 27.2969
M45.4062 8.20312
Q42.5781 3.32812 38.25 0.953125
Q33.9375 -1.42188 27.875 -1.42188
Q17.9688 -1.42188 11.7344 6.48438
Q5.51562 14.4062 5.51562 27.2969
Q5.51562 40.1875 11.7344 48.0938
Q17.9688 56 27.875 56
Q33.9375 56 38.25 53.625
Q42.5781 51.2656 45.4062 46.3906
L45.4062 54.6875
L54.3906 54.6875
L54.3906 -20.7969
L45.4062 -20.7969
z
" id="BitstreamVeraSans-Roman-71"/>
     </defs>
     <g transform="translate(38.983125 245.775)rotate(-90.0)scale(0.12 -0.12)">
      <use xlink:href="#BitstreamVeraSans-Roman-66"/>
      <use x="35.205078125" xlink:href="#BitstreamVeraSans-Roman-72"/>
      <use x="74.068359375" xlink:href="#BitstreamVeraSans-Roman-65"/>
      <use x="135.591796875" xlink:href="#BitstreamVeraSans-Roman-71"/>
      <use x="199.068359375" xlink:href="#BitstreamVeraSans-Roman-75"/>
      <use x="262.447265625" xlink:href="#BitstreamVeraSans-Roman-65"/>
      <use x="323.970703125" xlink:href="#BitstreamVeraSans-Roman-6e"/>
      <use x="387.349609375" xlink:href="#BitstreamVeraSans-Roman-63"/>
      <use x="442.330078125" xlink:href="#BitstreamVeraSans-Roman-79"/>
     </g>
    </g>
   </g>
   <g id="text_13">
    <!-- Result of 1000 simulations stopped after 1 events -->
    <defs>
     <path d="
M2.98438 54.6875
L12.5 54.6875
L29.5938 8.79688
L46.6875 54.6875
L56.2031 54.6875
L35.6875 0
L23.4844 0
z
" id="BitstreamVeraSans-Roman-76"/>
     <path d="
M45.4062 46.3906
L45.4062 75.9844
L54.3906 75.9844
L54.3906 0
L45.4062 0
L45.4062 8.20312
Q42.5781 3.32812 38.25 0.953125
Q33.9375 -1.42188 27.875 -1.42188
Q17.9688 -1.42188 11.7344 6.48438
Q5.51562 14.4062 5.51562 27.2969
Q5.51562 40.1875 11.7344 48.0938
Q17.9688 56 27.875 56
Q33.9375 56 38.25 53.625
Q42.5781 51.2656 45.4062 46.3906
M14.7969 27.2969
Q14.7969 17.3906 18.875 11.75
Q22.9531 6.10938 30.0781 6.10938
Q37.2031 6.10938 41.2969 11.75
Q45.4062 17.3906 45.4062 27.2969
Q45.4062 37.2031 41.2969 42.8438
Q37.2031 48.4844 30.0781 48.4844
Q22.9531 48.4844 18.875 42.8438
Q14.7969 37.2031 14.7969 27.2969" id="BitstreamVeraSans-Roman-64"/>
     <path d="
M44.3906 34.1875
Q47.5625 33.1094 50.5625 29.5938
Q53.5625 26.0781 56.5938 19.9219
L66.6094 0
L56 0
L46.6875 18.7031
Q43.0625 26.0312 39.6719 28.4219
Q36.2812 30.8125 30.4219 30.8125
L19.6719 30.8125
L19.6719 0
L9.8125 0
L9.8125 72.9062
L32.0781 72.9062
Q44.5781 72.9062 50.7344 67.6719
Q56.8906 62.4531 56.8906 51.9062
Q56.8906 45.0156 53.6875 40.4688
Q50.4844 35.9375 44.3906 34.1875
M19.6719 64.7969
L19.6719 38.9219
L32.0781 38.9219
Q39.2031 38.9219 42.8438 42.2188
Q46.4844 45.5156 46.4844 51.9062
Q46.4844 58.2969 42.8438 61.5469
Q39.2031 64.7969 32.0781 64.7969
z
" id="BitstreamVeraSans-Roman-52"/>
    </defs>
    <g transform="translate(115.74675 22.07515)scale(0.144 -0.144)">
     <use xlink:href="#BitstreamVeraSans-Roman-52"/>
     <use x="64.982421875" xlink:href="#BitstreamVeraSans-Roman-65"/>
     <use x="126.505859375" xlink:href="#BitstreamVeraSans-Roman-73"/>
     <use x="178.60546875" xlink:href="#BitstreamVeraSans-Roman-75"/>
     <use x="241.984375" xlink:href="#BitstreamVeraSans-Roman-6c"/>
     <use x="269.767578125" xlink:href="#BitstreamVeraSans-Roman-74"/>
     <use x="308.9765625" xlink:href="#BitstreamVeraSans-Roman-20"/>
     <use x="340.763671875" xlink:href="#BitstreamVeraSans-Roman-6f"/>
     <use x="401.9453125" xlink:href="#BitstreamVeraSans-Roman-66"/>
     <use x="437.150390625" xlink:href="#BitstreamVeraSans-Roman-20"/>
     <use x="468.9375" xlink:href="#BitstreamVeraSans-Roman-31"/>
     <use x="532.560546875" xlink:href="#BitstreamVeraSans-Roman-30"/>
     <use x="596.18359375" xlink:href="#BitstreamVeraSans-Roman-30"/>
     <use x="659.806640625" xlink:href="#BitstreamVeraSans-Roman-30"/>
     <use x="723.4296875" xlink:href="#BitstreamVeraSans-Roman-20"/>
     <use x="755.216796875" xlink:href="#BitstreamVeraSans-Roman-73"/>
     <use x="807.31640625" xlink:href="#BitstreamVeraSans-Roman-69"/>
     <use x="835.099609375" xlink:href="#BitstreamVeraSans-Roman-6d"/>
     <use x="932.51171875" xlink:href="#BitstreamVeraSans-Roman-75"/>
     <use x="995.890625" xlink:href="#BitstreamVeraSans-Roman-6c"/>
     <use x="1023.67382812" xlink:href="#BitstreamVeraSans-Roman-61"/>
     <use x="1084.953125" xlink:href="#BitstreamVeraSans-Roman-74"/>
     <use x="1124.16210938" xlink:href="#BitstreamVeraSans-Roman-69"/>
     <use x="1151.9453125" xlink:href="#BitstreamVeraSans-Roman-6f"/>
     <use x="1213.12695312" xlink:href="#BitstreamVeraSans-Roman-6e"/>
     <use x="1276.50585938" xlink:href="#BitstreamVeraSans-Roman-73"/>
     <use x="1328.60546875" xlink:href="#BitstreamVeraSans-Roman-20"/>
     <use x="1360.39257812" xlink:href="#BitstreamVeraSans-Roman-73"/>
     <use x="1412.4921875" xlink:href="#BitstreamVeraSans-Roman-74"/>
     <use x="1451.70117188" xlink:href="#BitstreamVeraSans-Roman-6f"/>
     <use x="1512.8828125" xlink:href="#BitstreamVeraSans-Roman-70"/>
     <use x="1576.359375" xlink:href="#BitstreamVeraSans-Roman-70"/>
     <use x="1639.8359375" xlink:href="#BitstreamVeraSans-Roman-65"/>
     <use x="1701.359375" xlink:href="#BitstreamVeraSans-Roman-64"/>
     <use x="1764.8359375" xlink:href="#BitstreamVeraSans-Roman-20"/>
     <use x="1796.62304688" xlink:href="#BitstreamVeraSans-Roman-61"/>
     <use x="1857.90234375" xlink:href="#BitstreamVeraSans-Roman-66"/>
     <use x="1891.35742188" xlink:href="#BitstreamVeraSans-Roman-74"/>
     <use x="1930.56640625" xlink:href="#BitstreamVeraSans-Roman-65"/>
     <use x="1992.08984375" xlink:href="#BitstreamVeraSans-Roman-72"/>
     <use x="2033.203125" xlink:href="#BitstreamVeraSans-Roman-20"/>
     <use x="2064.99023438" xlink:href="#BitstreamVeraSans-Roman-31"/>
     <use x="2128.61328125" xlink:href="#BitstreamVeraSans-Roman-20"/>
     <use x="2160.40039062" xlink:href="#BitstreamVeraSans-Roman-65"/>
     <use x="2221.92382812" xlink:href="#BitstreamVeraSans-Roman-76"/>
     <use x="2281.10351562" xlink:href="#BitstreamVeraSans-Roman-65"/>
     <use x="2342.62695312" xlink:href="#BitstreamVeraSans-Roman-6e"/>
     <use x="2406.00585938" xlink:href="#BitstreamVeraSans-Roman-74"/>
     <use x="2445.21484375" xlink:href="#BitstreamVeraSans-Roman-73"/>
    </g>
    <!-- sequences = 8    sequence-length = 64 -->
    <defs>
     <path d="
M31.7812 34.625
Q24.75 34.625 20.7188 30.8594
Q16.7031 27.0938 16.7031 20.5156
Q16.7031 13.9219 20.7188 10.1562
Q24.75 6.39062 31.7812 6.39062
Q38.8125 6.39062 42.8594 10.1719
Q46.9219 13.9688 46.9219 20.5156
Q46.9219 27.0938 42.8906 30.8594
Q38.875 34.625 31.7812 34.625
M21.9219 38.8125
Q15.5781 40.375 12.0312 44.7188
Q8.5 49.0781 8.5 55.3281
Q8.5 64.0625 14.7188 69.1406
Q20.9531 74.2188 31.7812 74.2188
Q42.6719 74.2188 48.875 69.1406
Q55.0781 64.0625 55.0781 55.3281
Q55.0781 49.0781 51.5312 44.7188
Q48 40.375 41.7031 38.8125
Q48.8281 37.1562 52.7969 32.3125
Q56.7812 27.4844 56.7812 20.5156
Q56.7812 9.90625 50.3125 4.23438
Q43.8438 -1.42188 31.7812 -1.42188
Q19.7344 -1.42188 13.25 4.23438
Q6.78125 9.90625 6.78125 20.5156
Q6.78125 27.4844 10.7812 32.3125
Q14.7969 37.1562 21.9219 38.8125
M18.3125 54.3906
Q18.3125 48.7344 21.8438 45.5625
Q25.3906 42.3906 31.7812 42.3906
Q38.1406 42.3906 41.7188 45.5625
Q45.3125 48.7344 45.3125 54.3906
Q45.3125 60.0625 41.7188 63.2344
Q38.1406 66.4062 31.7812 66.4062
Q25.3906 66.4062 21.8438 63.2344
Q18.3125 60.0625 18.3125 54.3906" id="BitstreamVeraSans-Roman-38"/>
     <path d="
M4.89062 31.3906
L31.2031 31.3906
L31.2031 23.3906
L4.89062 23.3906
z
" id="BitstreamVeraSans-Roman-2d"/>
     <path d="
M10.5938 45.4062
L73.1875 45.4062
L73.1875 37.2031
L10.5938 37.2031
z

M10.5938 25.4844
L73.1875 25.4844
L73.1875 17.1875
L10.5938 17.1875
z
" id="BitstreamVeraSans-Roman-3d"/>
     <path d="
M54.8906 33.0156
L54.8906 0
L45.9062 0
L45.9062 32.7188
Q45.9062 40.4844 42.875 44.3281
Q39.8438 48.1875 33.7969 48.1875
Q26.5156 48.1875 22.3125 43.5469
Q18.1094 38.9219 18.1094 30.9062
L18.1094 0
L9.07812 0
L9.07812 75.9844
L18.1094 75.9844
L18.1094 46.1875
Q21.3438 51.125 25.7031 53.5625
Q30.0781 56 35.7969 56
Q45.2188 56 50.0469 50.1719
Q54.8906 44.3438 54.8906 33.0156" id="BitstreamVeraSans-Roman-68"/>
    </defs>
    <g transform="translate(152.79525 38.2)scale(0.144 -0.144)">
     <use xlink:href="#BitstreamVeraSans-Roman-73"/>
     <use x="52.099609375" xlink:href="#BitstreamVeraSans-Roman-65"/>
     <use x="113.623046875" xlink:href="#BitstreamVeraSans-Roman-71"/>
     <use x="177.099609375" xlink:href="#BitstreamVeraSans-Roman-75"/>
     <use x="240.478515625" xlink:href="#BitstreamVeraSans-Roman-65"/>
     <use x="302.001953125" xlink:href="#BitstreamVeraSans-Roman-6e"/>
     <use x="365.380859375" xlink:href="#BitstreamVeraSans-Roman-63"/>
     <use x="420.361328125" xlink:href="#BitstreamVeraSans-Roman-65"/>
     <use x="481.884765625" xlink:href="#BitstreamVeraSans-Roman-73"/>
     <use x="533.984375" xlink:href="#BitstreamVeraSans-Roman-20"/>
     <use x="565.771484375" xlink:href="#BitstreamVeraSans-Roman-3d"/>
     <use x="649.560546875" xlink:href="#BitstreamVeraSans-Roman-20"/>
     <use x="681.34765625" xlink:href="#BitstreamVeraSans-Roman-38"/>
     <use x="744.970703125" xlink:href="#BitstreamVeraSans-Roman-20"/>
     <use x="776.7578125" xlink:href="#BitstreamVeraSans-Roman-20"/>
     <use x="808.544921875" xlink:href="#BitstreamVeraSans-Roman-20"/>
     <use x="840.33203125" xlink:href="#BitstreamVeraSans-Roman-20"/>
     <use x="872.119140625" xlink:href="#BitstreamVeraSans-Roman-73"/>
     <use x="924.21875" xlink:href="#BitstreamVeraSans-Roman-65"/>
     <use x="985.7421875" xlink:href="#BitstreamVeraSans-Roman-71"/>
     <use x="1049.21875" xlink:href="#BitstreamVeraSans-Roman-75"/>
     <use x="1112.59765625" xlink:href="#BitstreamVeraSans-Roman-65"/>
     <use x="1174.12109375" xlink:href="#BitstreamVeraSans-Roman-6e"/>
     <use x="1237.5" xlink:href="#BitstreamVeraSans-Roman-63"/>
     <use x="1292.48046875" xlink:href="#BitstreamVeraSans-Roman-65"/>
     <use x="1354.00390625" xlink:href="#BitstreamVeraSans-Roman-2d"/>
     <use x="1390.08789062" xlink:href="#BitstreamVeraSans-Roman-6c"/>
     <use x="1417.87109375" xlink:href="#BitstreamVeraSans-Roman-65"/>
     <use x="1479.39453125" xlink:href="#BitstreamVeraSans-Roman-6e"/>
     <use x="1542.7734375" xlink:href="#BitstreamVeraSans-Roman-67"/>
     <use x="1606.25" xlink:href="#BitstreamVeraSans-Roman-74"/>
     <use x="1645.45898438" xlink:href="#BitstreamVeraSans-Roman-68"/>
     <use x="1708.83789062" xlink:href="#BitstreamVeraSans-Roman-20"/>
     <use x="1740.625" xlink:href="#BitstreamVeraSans-Roman-3d"/>
     <use x="1824.4140625" xlink:href="#BitstreamVeraSans-Roman-20"/>
     <use x="1856.20117188" xlink:href="#BitstreamVeraSans-Roman-36"/>
     <use x="1919.82421875" xlink:href="#BitstreamVeraSans-Roman-34"/>
    </g>
   </g>
  </g>
 </g>
 <defs>
  <clipPath id="p7ff5b81e1d">
   <rect height="345.6" width="446.4" x="72.0" y="43.2"/>
  </clipPath>
 </defs>
 <defs>
  <pattern height="72" id="hcad88ede71" patternUnits="userSpaceOnUse" width="72" x="0" y="0">
   <rect fill="#ffffff" height="73" width="73" x="0" y="0"/>
   <path d="
M-36 36
L36 -36
M-30 42
L42 -30
M-24 48
L48 -24
M-18 54
L54 -18
M-12 60
L60 -12
M-6 66
L66 -6
M0 72
L72 0
M6 78
L78 6
M12 84
L84 12
M18 90
L90 18
M24 96
L96 24
M30 102
L102 30
M36 108
L108 36" style="fill:#000000;stroke:#000000;stroke-linecap:butt;stroke-linejoin:miter;stroke-width:1.0;"/>
  </pattern>
  <pattern height="72" id="h3c1d748473" patternUnits="userSpaceOnUse" width="72" x="0" y="0">
   <rect fill="#ffffff" height="73" width="73" x="0" y="0"/>
   <path d="
M0 73.2
C0.318244 73.2 0.623496 73.0736 0.848528 72.8485
C1.07356 72.6235 1.2 72.3182 1.2 72
C1.2 71.6818 1.07356 71.3765 0.848528 71.1515
C0.623496 70.9264 0.318244 70.8 0 70.8
C-0.318244 70.8 -0.623496 70.9264 -0.848528 71.1515
C-1.07356 71.3765 -1.2 71.6818 -1.2 72
C-1.2 72.3182 -1.07356 72.6235 -0.848528 72.8485
C-0.623496 73.0736 -0.318244 73.2 0 73.2
z

M12 73.2
C12.3182 73.2 12.6235 73.0736 12.8485 72.8485
C13.0736 72.6235 13.2 72.3182 13.2 72
C13.2 71.6818 13.0736 71.3765 12.8485 71.1515
C12.6235 70.9264 12.3182 70.8 12 70.8
C11.6818 70.8 11.3765 70.9264 11.1515 71.1515
C10.9264 71.3765 10.8 71.6818 10.8 72
C10.8 72.3182 10.9264 72.6235 11.1515 72.8485
C11.3765 73.0736 11.6818 73.2 12 73.2
z

M24 73.2
C24.3182 73.2 24.6235 73.0736 24.8485 72.8485
C25.0736 72.6235 25.2 72.3182 25.2 72
C25.2 71.6818 25.0736 71.3765 24.8485 71.1515
C24.6235 70.9264 24.3182 70.8 24 70.8
C23.6818 70.8 23.3765 70.9264 23.1515 71.1515
C22.9264 71.3765 22.8 71.6818 22.8 72
C22.8 72.3182 22.9264 72.6235 23.1515 72.8485
C23.3765 73.0736 23.6818 73.2 24 73.2
z

M36 73.2
C36.3182 73.2 36.6235 73.0736 36.8485 72.8485
C37.0736 72.6235 37.2 72.3182 37.2 72
C37.2 71.6818 37.0736 71.3765 36.8485 71.1515
C36.6235 70.9264 36.3182 70.8 36 70.8
C35.6818 70.8 35.3765 70.9264 35.1515 71.1515
C34.9264 71.3765 34.8 71.6818 34.8 72
C34.8 72.3182 34.9264 72.6235 35.1515 72.8485
C35.3765 73.0736 35.6818 73.2 36 73.2
z

M48 73.2
C48.3182 73.2 48.6235 73.0736 48.8485 72.8485
C49.0736 72.6235 49.2 72.3182 49.2 72
C49.2 71.6818 49.0736 71.3765 48.8485 71.1515
C48.6235 70.9264 48.3182 70.8 48 70.8
C47.6818 70.8 47.3765 70.9264 47.1515 71.1515
C46.9264 71.3765 46.8 71.6818 46.8 72
C46.8 72.3182 46.9264 72.6235 47.1515 72.8485
C47.3765 73.0736 47.6818 73.2 48 73.2
z

M60 73.2
C60.3182 73.2 60.6235 73.0736 60.8485 72.8485
C61.0736 72.6235 61.2 72.3182 61.2 72
C61.2 71.6818 61.0736 71.3765 60.8485 71.1515
C60.6235 70.9264 60.3182 70.8 60 70.8
C59.6818 70.8 59.3765 70.9264 59.1515 71.1515
C58.9264 71.3765 58.8 71.6818 58.8 72
C58.8 72.3182 58.9264 72.6235 59.1515 72.8485
C59.3765 73.0736 59.6818 73.2 60 73.2
z

M72 73.2
C72.3182 73.2 72.6235 73.0736 72.8485 72.8485
C73.0736 72.6235 73.2 72.3182 73.2 72
C73.2 71.6818 73.0736 71.3765 72.8485 71.1515
C72.6235 70.9264 72.3182 70.8 72 70.8
C71.6818 70.8 71.3765 70.9264 71.1515 71.1515
C70.9264 71.3765 70.8 71.6818 70.8 72
C70.8 72.3182 70.9264 72.6235 71.1515 72.8485
C71.3765 73.0736 71.6818 73.2 72 73.2
z

M6 61.2
C6.31824 61.2 6.6235 61.0736 6.84853 60.8485
C7.07356 60.6235 7.2 60.3182 7.2 60
C7.2 59.6818 7.07356 59.3765 6.84853 59.1515
C6.6235 58.9264 6.31824 58.8 6 58.8
C5.68176 58.8 5.3765 58.9264 5.15147 59.1515
C4.92644 59.3765 4.8 59.6818 4.8 60
C4.8 60.3182 4.92644 60.6235 5.15147 60.8485
C5.3765 61.0736 5.68176 61.2 6 61.2
z

M18 61.2
C18.3182 61.2 18.6235 61.0736 18.8485 60.8485
C19.0736 60.6235 19.2 60.3182 19.2 60
C19.2 59.6818 19.0736 59.3765 18.8485 59.1515
C18.6235 58.9264 18.3182 58.8 18 58.8
C17.6818 58.8 17.3765 58.9264 17.1515 59.1515
C16.9264 59.3765 16.8 59.6818 16.8 60
C16.8 60.3182 16.9264 60.6235 17.1515 60.8485
C17.3765 61.0736 17.6818 61.2 18 61.2
z

M30 61.2
C30.3182 61.2 30.6235 61.0736 30.8485 60.8485
C31.0736 60.6235 31.2 60.3182 31.2 60
C31.2 59.6818 31.0736 59.3765 30.8485 59.1515
C30.6235 58.9264 30.3182 58.8 30 58.8
C29.6818 58.8 29.3765 58.9264 29.1515 59.1515
C28.9264 59.3765 28.8 59.6818 28.8 60
C28.8 60.3182 28.9264 60.6235 29.1515 60.8485
C29.3765 61.0736 29.6818 61.2 30 61.2
z

M42 61.2
C42.3182 61.2 42.6235 61.0736 42.8485 60.8485
C43.0736 60.6235 43.2 60.3182 43.2 60
C43.2 59.6818 43.0736 59.3765 42.8485 59.1515
C42.6235 58.9264 42.3182 58.8 42 58.8
C41.6818 58.8 41.3765 58.9264 41.1515 59.1515
C40.9264 59.3765 40.8 59.6818 40.8 60
C40.8 60.3182 40.9264 60.6235 41.1515 60.8485
C41.3765 61.0736 41.6818 61.2 42 61.2
z

M54 61.2
C54.3182 61.2 54.6235 61.0736 54.8485 60.8485
C55.0736 60.6235 55.2 60.3182 55.2 60
C55.2 59.6818 55.0736 59.3765 54.8485 59.1515
C54.6235 58.9264 54.3182 58.8 54 58.8
C53.6818 58.8 53.3765 58.9264 53.1515 59.1515
C52.9264 59.3765 52.8 59.6818 52.8 60
C52.8 60.3182 52.9264 60.6235 53.1515 60.8485
C53.3765 61.0736 53.6818 61.2 54 61.2
z

M66 61.2
C66.3182 61.2 66.6235 61.0736 66.8485 60.8485
C67.0736 60.6235 67.2 60.3182 67.2 60
C67.2 59.6818 67.0736 59.3765 66.8485 59.1515
C66.6235 58.9264 66.3182 58.8 66 58.8
C65.6818 58.8 65.3765 58.9264 65.1515 59.1515
C64.9264 59.3765 64.8 59.6818 64.8 60
C64.8 60.3182 64.9264 60.6235 65.1515 60.8485
C65.3765 61.0736 65.6818 61.2 66 61.2
z

M0 49.2
C0.318244 49.2 0.623496 49.0736 0.848528 48.8485
C1.07356 48.6235 1.2 48.3182 1.2 48
C1.2 47.6818 1.07356 47.3765 0.848528 47.1515
C0.623496 46.9264 0.318244 46.8 0 46.8
C-0.318244 46.8 -0.623496 46.9264 -0.848528 47.1515
C-1.07356 47.3765 -1.2 47.6818 -1.2 48
C-1.2 48.3182 -1.07356 48.6235 -0.848528 48.8485
C-0.623496 49.0736 -0.318244 49.2 0 49.2
z

M12 49.2
C12.3182 49.2 12.6235 49.0736 12.8485 48.8485
C13.0736 48.6235 13.2 48.3182 13.2 48
C13.2 47.6818 13.0736 47.3765 12.8485 47.1515
C12.6235 46.9264 12.3182 46.8 12 46.8
C11.6818 46.8 11.3765 46.9264 11.1515 47.1515
C10.9264 47.3765 10.8 47.6818 10.8 48
C10.8 48.3182 10.9264 48.6235 11.1515 48.8485
C11.3765 49.0736 11.6818 49.2 12 49.2
z

M24 49.2
C24.3182 49.2 24.6235 49.0736 24.8485 48.8485
C25.0736 48.6235 25.2 48.3182 25.2 48
C25.2 47.6818 25.0736 47.3765 24.8485 47.1515
C24.6235 46.9264 24.3182 46.8 24 46.8
C23.6818 46.8 23.3765 46.9264 23.1515 47.1515
C22.9264 47.3765 22.8 47.6818 22.8 48
C22.8 48.3182 22.9264 48.6235 23.1515 48.8485
C23.3765 49.0736 23.6818 49.2 24 49.2
z

M36 49.2
C36.3182 49.2 36.6235 49.0736 36.8485 48.8485
C37.0736 48.6235 37.2 48.3182 37.2 48
C37.2 47.6818 37.0736 47.3765 36.8485 47.1515
C36.6235 46.9264 36.3182 46.8 36 46.8
C35.6818 46.8 35.3765 46.9264 35.1515 47.1515
C34.9264 47.3765 34.8 47.6818 34.8 48
C34.8 48.3182 34.9264 48.6235 35.1515 48.8485
C35.3765 49.0736 35.6818 49.2 36 49.2
z

M48 49.2
C48.3182 49.2 48.6235 49.0736 48.8485 48.8485
C49.0736 48.6235 49.2 48.3182 49.2 48
C49.2 47.6818 49.0736 47.3765 48.8485 47.1515
C48.6235 46.9264 48.3182 46.8 48 46.8
C47.6818 46.8 47.3765 46.9264 47.1515 47.1515
C46.9264 47.3765 46.8 47.6818 46.8 48
C46.8 48.3182 46.9264 48.6235 47.1515 48.8485
C47.3765 49.0736 47.6818 49.2 48 49.2
z

M60 49.2
C60.3182 49.2 60.6235 49.0736 60.8485 48.8485
C61.0736 48.6235 61.2 48.3182 61.2 48
C61.2 47.6818 61.0736 47.3765 60.8485 47.1515
C60.6235 46.9264 60.3182 46.8 60 46.8
C59.6818 46.8 59.3765 46.9264 59.1515 47.1515
C58.9264 47.3765 58.8 47.6818 58.8 48
C58.8 48.3182 58.9264 48.6235 59.1515 48.8485
C59.3765 49.0736 59.6818 49.2 60 49.2
z

M72 49.2
C72.3182 49.2 72.6235 49.0736 72.8485 48.8485
C73.0736 48.6235 73.2 48.3182 73.2 48
C73.2 47.6818 73.0736 47.3765 72.8485 47.1515
C72.6235 46.9264 72.3182 46.8 72 46.8
C71.6818 46.8 71.3765 46.9264 71.1515 47.1515
C70.9264 47.3765 70.8 47.6818 70.8 48
C70.8 48.3182 70.9264 48.6235 71.1515 48.8485
C71.3765 49.0736 71.6818 49.2 72 49.2
z

M6 37.2
C6.31824 37.2 6.6235 37.0736 6.84853 36.8485
C7.07356 36.6235 7.2 36.3182 7.2 36
C7.2 35.6818 7.07356 35.3765 6.84853 35.1515
C6.6235 34.9264 6.31824 34.8 6 34.8
C5.68176 34.8 5.3765 34.9264 5.15147 35.1515
C4.92644 35.3765 4.8 35.6818 4.8 36
C4.8 36.3182 4.92644 36.6235 5.15147 36.8485
C5.3765 37.0736 5.68176 37.2 6 37.2
z

M18 37.2
C18.3182 37.2 18.6235 37.0736 18.8485 36.8485
C19.0736 36.6235 19.2 36.3182 19.2 36
C19.2 35.6818 19.0736 35.3765 18.8485 35.1515
C18.6235 34.9264 18.3182 34.8 18 34.8
C17.6818 34.8 17.3765 34.9264 17.1515 35.1515
C16.9264 35.3765 16.8 35.6818 16.8 36
C16.8 36.3182 16.9264 36.6235 17.1515 36.8485
C17.3765 37.0736 17.6818 37.2 18 37.2
z

M30 37.2
C30.3182 37.2 30.6235 37.0736 30.8485 36.8485
C31.0736 36.6235 31.2 36.3182 31.2 36
C31.2 35.6818 31.0736 35.3765 30.8485 35.1515
C30.6235 34.9264 30.3182 34.8 30 34.8
C29.6818 34.8 29.3765 34.9264 29.1515 35.1515
C28.9264 35.3765 28.8 35.6818 28.8 36
C28.8 36.3182 28.9264 36.6235 29.1515 36.8485
C29.3765 37.0736 29.6818 37.2 30 37.2
z

M42 37.2
C42.3182 37.2 42.6235 37.0736 42.8485 36.8485
C43.0736 36.6235 43.2 36.3182 43.2 36
C43.2 35.6818 43.0736 35.3765 42.8485 35.1515
C42.6235 34.9264 42.3182 34.8 42 34.8
C41.6818 34.8 41.3765 34.9264 41.1515 35.1515
C40.9264 35.3765 40.8 35.6818 40.8 36
C40.8 36.3182 40.9264 36.6235 41.1515 36.8485
C41.3765 37.0736 41.6818 37.2 42 37.2
z

M54 37.2
C54.3182 37.2 54.6235 37.0736 54.8485 36.8485
C55.0736 36.6235 55.2 36.3182 55.2 36
C55.2 35.6818 55.0736 35.3765 54.8485 35.1515
C54.6235 34.9264 54.3182 34.8 54 34.8
C53.6818 34.8 53.3765 34.9264 53.1515 35.1515
C52.9264 35.3765 52.8 35.6818 52.8 36
C52.8 36.3182 52.9264 36.6235 53.1515 36.8485
C53.3765 37.0736 53.6818 37.2 54 37.2
z

M66 37.2
C66.3182 37.2 66.6235 37.0736 66.8485 36.8485
C67.0736 36.6235 67.2 36.3182 67.2 36
C67.2 35.6818 67.0736 35.3765 66.8485 35.1515
C66.6235 34.9264 66.3182 34.8 66 34.8
C65.6818 34.8 65.3765 34.9264 65.1515 35.1515
C64.9264 35.3765 64.8 35.6818 64.8 36
C64.8 36.3182 64.9264 36.6235 65.1515 36.8485
C65.3765 37.0736 65.6818 37.2 66 37.2
z

M0 25.2
C0.318244 25.2 0.623496 25.0736 0.848528 24.8485
C1.07356 24.6235 1.2 24.3182 1.2 24
C1.2 23.6818 1.07356 23.3765 0.848528 23.1515
C0.623496 22.9264 0.318244 22.8 0 22.8
C-0.318244 22.8 -0.623496 22.9264 -0.848528 23.1515
C-1.07356 23.3765 -1.2 23.6818 -1.2 24
C-1.2 24.3182 -1.07356 24.6235 -0.848528 24.8485
C-0.623496 25.0736 -0.318244 25.2 0 25.2
z

M12 25.2
C12.3182 25.2 12.6235 25.0736 12.8485 24.8485
C13.0736 24.6235 13.2 24.3182 13.2 24
C13.2 23.6818 13.0736 23.3765 12.8485 23.1515
C12.6235 22.9264 12.3182 22.8 12 22.8
C11.6818 22.8 11.3765 22.9264 11.1515 23.1515
C10.9264 23.3765 10.8 23.6818 10.8 24
C10.8 24.3182 10.9264 24.6235 11.1515 24.8485
C11.3765 25.0736 11.6818 25.2 12 25.2
z

M24 25.2
C24.3182 25.2 24.6235 25.0736 24.8485 24.8485
C25.0736 24.6235 25.2 24.3182 25.2 24
C25.2 23.6818 25.0736 23.3765 24.8485 23.1515
C24.6235 22.9264 24.3182 22.8 24 22.8
C23.6818 22.8 23.3765 22.9264 23.1515 23.1515
C22.9264 23.3765 22.8 23.6818 22.8 24
C22.8 24.3182 22.9264 24.6235 23.1515 24.8485
C23.3765 25.0736 23.6818 25.2 24 25.2
z

M36 25.2
C36.3182 25.2 36.6235 25.0736 36.8485 24.8485
C37.0736 24.6235 37.2 24.3182 37.2 24
C37.2 23.6818 37.0736 23.3765 36.8485 23.1515
C36.6235 22.9264 36.3182 22.8 36 22.8
C35.6818 22.8 35.3765 22.9264 35.1515 23.1515
C34.9264 23.3765 34.8 23.6818 34.8 24
C34.8 24.3182 34.9264 24.6235 35.1515 24.8485
C35.3765 25.0736 35.6818 25.2 36 25.2
z

M48 25.2
C48.3182 25.2 48.6235 25.0736 48.8485 24.8485
C49.0736 24.6235 49.2 24.3182 49.2 24
C49.2 23.6818 49.0736 23.3765 48.8485 23.1515
C48.6235 22.9264 48.3182 22.8 48 22.8
C47.6818 22.8 47.3765 22.9264 47.1515 23.1515
C46.9264 23.3765 46.8 23.6818 46.8 24
C46.8 24.3182 46.9264 24.6235 47.1515 24.8485
C47.3765 25.0736 47.6818 25.2 48 25.2
z

M60 25.2
C60.3182 25.2 60.6235 25.0736 60.8485 24.8485
C61.0736 24.6235 61.2 24.3182 61.2 24
C61.2 23.6818 61.0736 23.3765 60.8485 23.1515
C60.6235 22.9264 60.3182 22.8 60 22.8
C59.6818 22.8 59.3765 22.9264 59.1515 23.1515
C58.9264 23.3765 58.8 23.6818 58.8 24
C58.8 24.3182 58.9264 24.6235 59.1515 24.8485
C59.3765 25.0736 59.6818 25.2 60 25.2
z

M72 25.2
C72.3182 25.2 72.6235 25.0736 72.8485 24.8485
C73.0736 24.6235 73.2 24.3182 73.2 24
C73.2 23.6818 73.0736 23.3765 72.8485 23.1515
C72.6235 22.9264 72.3182 22.8 72 22.8
C71.6818 22.8 71.3765 22.9264 71.1515 23.1515
C70.9264 23.3765 70.8 23.6818 70.8 24
C70.8 24.3182 70.9264 24.6235 71.1515 24.8485
C71.3765 25.0736 71.6818 25.2 72 25.2
z

M6 13.2
C6.31824 13.2 6.6235 13.0736 6.84853 12.8485
C7.07356 12.6235 7.2 12.3182 7.2 12
C7.2 11.6818 7.07356 11.3765 6.84853 11.1515
C6.6235 10.9264 6.31824 10.8 6 10.8
C5.68176 10.8 5.3765 10.9264 5.15147 11.1515
C4.92644 11.3765 4.8 11.6818 4.8 12
C4.8 12.3182 4.92644 12.6235 5.15147 12.8485
C5.3765 13.0736 5.68176 13.2 6 13.2
z

M18 13.2
C18.3182 13.2 18.6235 13.0736 18.8485 12.8485
C19.0736 12.6235 19.2 12.3182 19.2 12
C19.2 11.6818 19.0736 11.3765 18.8485 11.1515
C18.6235 10.9264 18.3182 10.8 18 10.8
C17.6818 10.8 17.3765 10.9264 17.1515 11.1515
C16.9264 11.3765 16.8 11.6818 16.8 12
C16.8 12.3182 16.9264 12.6235 17.1515 12.8485
C17.3765 13.0736 17.6818 13.2 18 13.2
z

M30 13.2
C30.3182 13.2 30.6235 13.0736 30.8485 12.8485
C31.0736 12.6235 31.2 12.3182 31.2 12
C31.2 11.6818 31.0736 11.3765 30.8485 11.1515
C30.6235 10.9264 30.3182 10.8 30 10.8
C29.6818 10.8 29.3765 10.9264 29.1515 11.1515
C28.9264 11.3765 28.8 11.6818 28.8 12
C28.8 12.3182 28.9264 12.6235 29.1515 12.8485
C29.3765 13.0736 29.6818 13.2 30 13.2
z

M42 13.2
C42.3182 13.2 42.6235 13.0736 42.8485 12.8485
C43.0736 12.6235 43.2 12.3182 43.2 12
C43.2 11.6818 43.0736 11.3765 42.8485 11.1515
C42.6235 10.9264 42.3182 10.8 42 10.8
C41.6818 10.8 41.3765 10.9264 41.1515 11.1515
C40.9264 11.3765 40.8 11.6818 40.8 12
C40.8 12.3182 40.9264 12.6235 41.1515 12.8485
C41.3765 13.0736 41.6818 13.2 42 13.2
z

M54 13.2
C54.3182 13.2 54.6235 13.0736 54.8485 12.8485
C55.0736 12.6235 55.2 12.3182 55.2 12
C55.2 11.6818 55.0736 11.3765 54.8485 11.1515
C54.6235 10.9264 54.3182 10.8 54 10.8
C53.6818 10.8 53.3765 10.9264 53.1515 11.1515
C52.9264 11.3765 52.8 11.6818 52.8 12
C52.8 12.3182 52.9264 12.6235 53.1515 12.8485
C53.3765 13.0736 53.6818 13.2 54 13.2
z

M66 13.2
C66.3182 13.2 66.6235 13.0736 66.8485 12.8485
C67.0736 12.6235 67.2 12.3182 67.2 12
C67.2 11.6818 67.0736 11.3765 66.8485 11.1515
C66.6235 10.9264 66.3182 10.8 66 10.8
C65.6818 10.8 65.3765 10.9264 65.1515 11.1515
C64.9264 11.3765 64.8 11.6818 64.8 12
C64.8 12.3182 64.9264 12.6235 65.1515 12.8485
C65.3765 13.0736 65.6818 13.2 66 13.2
z

M0 1.2
C0.318244 1.2 0.623496 1.07356 0.848528 0.848528
C1.07356 0.623496 1.2 0.318244 1.2 0
C1.2 -0.318244 1.07356 -0.623496 0.848528 -0.848528
C0.623496 -1.07356 0.318244 -1.2 0 -1.2
C-0.318244 -1.2 -0.623496 -1.07356 -0.848528 -0.848528
C-1.07356 -0.623496 -1.2 -0.318244 -1.2 0
C-1.2 0.318244 -1.07356 0.623496 -0.848528 0.848528
C-0.623496 1.07356 -0.318244 1.2 0 1.2
z

M12 1.2
C12.3182 1.2 12.6235 1.07356 12.8485 0.848528
C13.0736 0.623496 13.2 0.318244 13.2 0
C13.2 -0.318244 13.0736 -0.623496 12.8485 -0.848528
C12.6235 -1.07356 12.3182 -1.2 12 -1.2
C11.6818 -1.2 11.3765 -1.07356 11.1515 -0.848528
C10.9264 -0.623496 10.8 -0.318244 10.8 0
C10.8 0.318244 10.9264 0.623496 11.1515 0.848528
C11.3765 1.07356 11.6818 1.2 12 1.2
z

M24 1.2
C24.3182 1.2 24.6235 1.07356 24.8485 0.848528
C25.0736 0.623496 25.2 0.318244 25.2 0
C25.2 -0.318244 25.0736 -0.623496 24.8485 -0.848528
C24.6235 -1.07356 24.3182 -1.2 24 -1.2
C23.6818 -1.2 23.3765 -1.07356 23.1515 -0.848528
C22.9264 -0.623496 22.8 -0.318244 22.8 0
C22.8 0.318244 22.9264 0.623496 23.1515 0.848528
C23.3765 1.07356 23.6818 1.2 24 1.2
z

M36 1.2
C36.3182 1.2 36.6235 1.07356 36.8485 0.848528
C37.0736 0.623496 37.2 0.318244 37.2 0
C37.2 -0.318244 37.0736 -0.623496 36.8485 -0.848528
C36.6235 -1.07356 36.3182 -1.2 36 -1.2
C35.6818 -1.2 35.3765 -1.07356 35.1515 -0.848528
C34.9264 -0.623496 34.8 -0.318244 34.8 0
C34.8 0.318244 34.9264 0.623496 35.1515 0.848528
C35.3765 1.07356 35.6818 1.2 36 1.2
z

M48 1.2
C48.3182 1.2 48.6235 1.07356 48.8485 0.848528
C49.0736 0.623496 49.2 0.318244 49.2 0
C49.2 -0.318244 49.0736 -0.623496 48.8485 -0.848528
C48.6235 -1.07356 48.3182 -1.2 48 -1.2
C47.6818 -1.2 47.3765 -1.07356 47.1515 -0.848528
C46.9264 -0.623496 46.8 -0.318244 46.8 0
C46.8 0.318244 46.9264 0.623496 47.1515 0.848528
C47.3765 1.07356 47.6818 1.2 48 1.2
z

M60 1.2
C60.3182 1.2 60.6235 1.07356 60.8485 0.848528
C61.0736 0.623496 61.2 0.318244 61.2 0
C61.2 -0.318244 61.0736 -0.623496 60.8485 -0.848528
C60.6235 -1.07356 60.3182 -1.2 60 -1.2
C59.6818 -1.2 59.3765 -1.07356 59.1515 -0.848528
C58.9264 -0.623496 58.8 -0.318244 58.8 0
C58.8 0.318244 58.9264 0.623496 59.1515 0.848528
C59.3765 1.07356 59.6818 1.2 60 1.2
z

M72 1.2
C72.3182 1.2 72.6235 1.07356 72.8485 0.848528
C73.0736 0.623496 73.2 0.318244 73.2 0
C73.2 -0.318244 73.0736 -0.623496 72.8485 -0.848528
C72.6235 -1.07356 72.3182 -1.2 72 -1.2
C71.6818 -1.2 71.3765 -1.07356 71.1515 -0.848528
C70.9264 -0.623496 70.8 -0.318244 70.8 0
C70.8 0.318244 70.9264 0.623496 71.1515 0.848528
C71.3765 1.07356 71.6818 1.2 72 1.2
z
" style="fill:#000000;stroke:#000000;stroke-linecap:butt;stroke-linejoin:miter;stroke-width:1.0;"/>
  </pattern>
  <pattern height="72" id="had7df6d085" patternUnits="userSpaceOnUse" width="72" x="0" y="0">
   <rect fill="#ffffff" height="73" width="73" x="0" y="0"/>
   <path d="
M-36 36
L36 108
M-24 24
L48 96
M-12 12
L60 84
M0 0
L72 72
M12 -12
L84 60
M24 -24
L96 48
M36 -36
L108 36" style="fill:#000000;stroke:#000000;stroke-linecap:butt;stroke-linejoin:miter;stroke-width:1.0;"/>
  </pattern>
 </defs>
</svg>
